<?xml version="1.0" encoding="UTF-8"?>
<svg version="1.1" xmlns="http://www.w3.org/2000/svg" width="48" height="48">
<path d="M0 0 C0.8245166 -0.00478363 1.6490332 -0.00956726 2.49853516 -0.01449585 C4.23667313 -0.01788872 5.97487544 -0.00872903 7.71289062 0.01220703 C10.36733825 0.03898521 13.01755825 0.01244254 15.671875 -0.01953125 C17.36459263 -0.01622704 19.05730763 -0.00982056 20.75 0 C21.93456787 -0.01518173 21.93456787 -0.01518173 23.14306641 -0.03067017 C27.11276955 0.05339275 28.99170918 0.40801499 32.37255859 2.66650391 C35.0441572 6.66575868 35.09944932 9.57732793 35.0390625 14.2890625 C35.04384613 15.1135791 35.04862976 15.9380957 35.05355835 16.78759766 C35.05695122 18.52573563 35.04779153 20.26393794 35.02685547 22.00195312 C35.00007729 24.65640075 35.02661996 27.30662075 35.05859375 29.9609375 C35.05528954 31.65365513 35.04888306 33.34637013 35.0390625 35.0390625 C35.04918365 35.82877441 35.05930481 36.61848633 35.06973267 37.43212891 C34.98566975 41.40183205 34.63104751 43.28077168 32.37255859 46.66162109 C28.37330382 49.3332197 25.46173457 49.38851182 20.75 49.328125 C19.5132251 49.33530045 19.5132251 49.33530045 18.25146484 49.34262085 C16.51332687 49.34601372 14.77512456 49.33685403 13.03710938 49.31591797 C10.38266175 49.28913979 7.73244175 49.31568246 5.078125 49.34765625 C3.38540737 49.34435204 1.69269237 49.33794556 0 49.328125 C-0.78971191 49.33824615 -1.57942383 49.34836731 -2.39306641 49.35879517 C-6.36276955 49.27473225 -8.24170918 48.92011001 -11.62255859 46.66162109 C-14.2941572 42.66236632 -14.34944932 39.75079707 -14.2890625 35.0390625 C-14.29384613 34.2145459 -14.29862976 33.3900293 -14.30355835 32.54052734 C-14.30695122 30.80238937 -14.29779153 29.06418706 -14.27685547 27.32617188 C-14.25007729 24.67172425 -14.27661996 22.02150425 -14.30859375 19.3671875 C-14.30528954 17.67446987 -14.29888306 15.98175487 -14.2890625 14.2890625 C-14.29918365 13.49935059 -14.30930481 12.70963867 -14.31973267 11.89599609 C-14.23566975 7.92629295 -13.88104751 6.04735332 -11.62255859 2.66650391 C-7.62330382 -0.0050947 -4.71173457 -0.06038682 0 0 Z " fill="#513DC5" transform="translate(13.625,-0.6640625)"/>
<path d="M0 0 C4.41910011 2.29283686 7.90397507 5.74830382 9.76171875 10.3515625 C10.6159833 15.86681432 10.72208697 21.31627211 8.07421875 26.3515625 C4.18859667 31.39236952 0.13187497 34.72246132 -6.2734375 35.64453125 C-12.49778322 36.03955834 -16.47747247 34.30454173 -21.23828125 30.3515625 C-25.61727111 25.63572726 -26.52594491 21.95581078 -26.46484375 15.703125 C-26.00598294 10.94046625 -23.87394089 7.30505195 -21.23828125 3.3515625 C-20.24828125 3.3515625 -19.25828125 3.3515625 -18.23828125 3.3515625 C-17.90828125 2.3615625 -17.57828125 1.3715625 -17.23828125 0.3515625 C-12.4499996 -2.04257832 -5.04747739 -1.46227094 0 0 Z " fill="#42A5D5" transform="translate(32.23828125,6.6484375)"/>
<path d="M0 0 C3.59185655 2.40722733 6.3922536 4.94351525 7.91015625 9.05078125 C8.79497952 16.17360857 8.34652696 21.33019796 3.91015625 27.05078125 C0.2198817 30.64879894 -2.95733063 31.41033329 -7.96484375 31.73828125 C-13.68178988 31.56051551 -16.55263908 29.93561624 -20.56640625 25.97265625 C-23.74999811 21.95643267 -24.32280256 19.17587512 -24.08984375 14.05078125 C-22.43984375 13.72078125 -20.78984375 13.39078125 -19.08984375 13.05078125 C-18.49236328 14.31535156 -18.49236328 14.31535156 -17.8828125 15.60546875 C-17.35300781 16.70117188 -16.82320312 17.796875 -16.27734375 18.92578125 C-15.49423828 20.56160156 -15.49423828 20.56160156 -14.6953125 22.23046875 C-13.24259478 25.27299527 -13.24259478 25.27299527 -10.08984375 27.05078125 C-6.68232496 26.9611097 -5.18802121 26.12558313 -2.46484375 24.05078125 C0.50947091 20.2937522 1.68255207 16.63184076 2.91015625 12.05078125 C1.92015625 12.54578125 1.92015625 12.54578125 0.91015625 13.05078125 C-1.42283035 13.09100516 -3.75691041 13.09398372 -6.08984375 13.05078125 C-6.08984375 11.40078125 -6.08984375 9.75078125 -6.08984375 8.05078125 C-3.61484375 8.54578125 -3.61484375 8.54578125 -1.08984375 9.05078125 C-4.23702574 5.39682812 -4.23702574 5.39682812 -8.46484375 3.30078125 C-12.12651765 4.34697379 -13.77430316 6.66918447 -16.30859375 9.42578125 C-18.73544521 11.639751 -20.85833827 11.97196404 -24.08984375 12.05078125 C-23.58371235 7.62213154 -22.24094429 5.20188179 -19.08984375 2.05078125 C-13.30131528 -1.30656526 -6.34872781 -2.88362777 0 0 Z " fill="#F3F7F9" transform="translate(32.08984375,8.94921875)"/>
<path d="M0 0 C4.41910011 2.29283686 7.90397507 5.74830382 9.76171875 10.3515625 C10.6159833 15.86681432 10.72208697 21.31627211 8.07421875 26.3515625 C4.18859667 31.39236952 0.13187497 34.72246132 -6.2734375 35.64453125 C-12.49778322 36.03955834 -16.47747247 34.30454173 -21.23828125 30.3515625 C-25.61727111 25.63572726 -26.52594491 21.95581078 -26.46484375 15.703125 C-26.00598294 10.94046625 -23.87394089 7.30505195 -21.23828125 3.3515625 C-20.24828125 3.3515625 -19.25828125 3.3515625 -18.23828125 3.3515625 C-17.90828125 2.3615625 -17.57828125 1.3715625 -17.23828125 0.3515625 C-12.4499996 -2.04257832 -5.04747739 -1.46227094 0 0 Z M-22.17578125 7.3515625 C-25.17998354 12.03692435 -25.10705941 16.98462451 -24.23828125 22.3515625 C-22.77618827 25.79520144 -22.77618827 25.79520144 -20.23828125 28.3515625 C-19.41328125 29.3003125 -18.58828125 30.2490625 -17.73828125 31.2265625 C-13.929643 34.2287799 -9.75309771 33.98530387 -5.08203125 33.765625 C0.42864431 32.96324642 2.81980828 30.56613126 6.13671875 26.2890625 C8.57332391 21.53870621 8.53070761 16.54616074 7.76171875 11.3515625 C5.46472996 6.49254776 2.60287851 3.68249127 -2.23828125 1.3515625 C-9.7924347 0.24029034 -16.99266108 1.31424096 -22.17578125 7.3515625 Z " fill="#3070B2" transform="translate(32.23828125,6.6484375)"/>
<path d="M0 0 C2.64 0 5.28 0 8 0 C8.33 2.64 8.66 5.28 9 8 C6 10 6 10 3.625 9.9375 C0.18515634 8.70898441 -1.5877865 6.68789504 -4 4 C-3.67 3.34 -3.34 2.68 -3 2 C-2.01 3.485 -2.01 3.485 -1 5 C-0.67 3.35 -0.34 1.7 0 0 Z " fill="#3681AE" transform="translate(20,27)"/>
<path d="M0 0 C0.66 0 1.32 0 2 0 C2.33 1.32 2.66 2.64 3 4 C3.66 4 4.32 4 5 4 C5 4.66 5 5.32 5 6 C5.66 6 6.32 6 7 6 C7 6.66 7 7.32 7 8 C5.02 8 3.04 8 1 8 C1 9.98 1 11.96 1 14 C-2.35111834 11.76592111 -3.81553956 10.73784176 -4.8125 6.75 C-4.874375 5.8425 -4.93625 4.935 -5 4 C-4.01 3.67 -3.02 3.34 -2 3 C-1.34 2.01 -0.68 1.02 0 0 Z " fill="#2F98CC" transform="translate(19,19)"/>
<path d="M0 0 C2.8028966 1.03861379 4.57973607 2.19887336 7 4 C6.01 4.495 6.01 4.495 5 5 C4.34 4.690625 3.68 4.38125 3 4.0625 C-2.42827551 2.13998576 -8.43275641 2.14280352 -13.875 4.125 C-17.63996379 6.38397827 -18.89625687 8.21326237 -21 12 C-21.6875 10.25 -21.6875 10.25 -22 8 C-20.75 5.75 -20.75 5.75 -19 4 C-18.01 4 -17.02 4 -16 4 C-15.67 3.01 -15.34 2.02 -15 1 C-10.58895534 -1.20552233 -4.79933516 -0.43889407 0 0 Z " fill="#2847A3" transform="translate(30,6)"/>
<path d="M0 0 C1.67542976 0.28604898 3.34385343 0.61781233 5 1 C4.67 2.98 4.34 4.96 4 7 C2.68 7 1.36 7 0 7 C-0.38133299 5.0085944 -0.71325582 3.00720923 -1 1 C-0.67 0.67 -0.34 0.34 0 0 Z " fill="#E68333" transform="translate(22,27)"/>
<path d="M0 0 C4.47321429 1.6664916 4.47321429 1.6664916 6.1875 4.1875 C6.1875 4.8475 6.1875 5.5075 6.1875 6.1875 C3.7125 5.6925 3.7125 5.6925 1.1875 5.1875 C1.5175 4.5275 1.8475 3.8675 2.1875 3.1875 C-0.55853467 2.68365665 -0.55853467 2.68365665 -3.8125 3.1875 C-6.15003821 4.98803619 -7.85318267 6.9482802 -9.8125 9.1875 C-10.4725 8.8575 -11.1325 8.5275 -11.8125 8.1875 C-5.12737164 0.25216582 -5.12737164 0.25216582 0 0 Z " fill="#368DBF" transform="translate(24.8125,11.8125)"/>
<path d="M0 0 C0 0.33 0 0.66 0 1 C-0.73605469 1.08636719 -1.47210937 1.17273438 -2.23046875 1.26171875 C-8.40642113 2.15099062 -11.99456635 2.86803813 -16 8 C-17 9 -18 10 -19 11 C-18.45276317 7.62537285 -17.9451 5.91765 -16 3 C-15.01 3 -14.02 3 -13 3 C-13 2.34 -13 1.68 -13 1 C-8.59085217 -0.10228696 -4.51617599 -0.07654536 0 0 Z " fill="#3271B1" transform="translate(27,7)"/>
<path d="M0 0 C2.475 0.495 2.475 0.495 5 1 C4.67 1.99 4.34 2.98 4 4 C2.68 4 1.36 4 0 4 C0 2.68 0 1.36 0 0 Z " fill="#F7B986" transform="translate(22,27)"/>
</svg>
